# xmcd CD database file
#
# Track frame offsets:
#	151
#	13842
#	28069
#	42035
#	56068
#	68779
#	82341
#	93613
#	107632
#	121013
#	133953
#	147484
#	160389
#	172381
#	183206
#	196083
#	208248
#	220978
#	232648
#	244645
#
# Disc length: 3438 seconds
#
# Revision: 0
# Processed by: cddbd v1.5.1PL0 Copyright (c) Steve Scherf et al.
# Submitted via: CDex 1.40Beta9
#
DISCID=280d6c14
DTITLE=Bukka White - The Vintage Recordings (1930-1940)
DYEAR=2003
DGENRE=Blues
TTITLE0=The New Frisco Train
TTITLE1=The Panama Limited
TTITLE2=I Am In The Heavenly Way
TTITLE3=Promise True And Grand
TTITLE4=Pinebluff Arkansas
TTITLE5=Shake 'Em On Down
TTITLE6=Sic 'Em Dogs On
TTITLE7=Po' Boy
TTITLE8=Black Train
TTITLE9=Strange Place Blues
TTITLE10=Where Can I Change My Clothes
TTITLE11=Sleepy Man Blues
TTITLE12=Parchman Farm Blues
TTITLE13=Good Gin Blues
TTITLE14=High Fever Blues
TTITLE15=District Attorney Blues
TTITLE16=Fixin' To Die Blues
TTITLE17=Aberdeen Mississippi Blues
TTITLE18=Bukka's Jitterbug Swing
TTITLE19=Special Stream Line
EXTD=YEAR: 2003 ID3G: 0
EXTT0=
EXTT1=
EXTT2=
EXTT3=
EXTT4=
EXTT5=
EXTT6=
EXTT7=
EXTT8=
EXTT9=
EXTT10=
EXTT11=
EXTT12=
EXTT13=
EXTT14=
EXTT15=
EXTT16=
EXTT17=
EXTT18=
EXTT19=
PLAYORDER=
